<?xml version="1.0" encoding="utf-8"?>
<!-- Generator: Adobe Illustrator 26.2.1, SVG Export Plug-In . SVG Version: 6.00 Build 0)  -->
<svg version="1.1" id="Warstwa_1" xmlns="http://www.w3.org/2000/svg" xmlns:xlink="http://www.w3.org/1999/xlink" x="0px" y="0px"
	 viewBox="0 0 430 430" style="enable-background:new 0 0 430 430;" xml:space="preserve">
<style type="text/css">
	.st0{fill:#2CA58D;}
	.st1{opacity:0.5;fill:#2CA58D;}
	.st2{fill:#4BB3FD;}
	.st3{opacity:0.5;fill:#4BB3FD;}
	.st4{fill:#ffc738;}
	.st5{fill:#ebe6ef;}
	.st6{opacity:0.5;fill:#ebe6ef;}
	.st7{fill:#646E78;}
	.st8{opacity:0.5;fill:#646E78;}
	.st9{opacity:0.5;fill:#ffc738;}
	.st10{opacity:0.5;}
	.st11{fill:#121331;}
	.st12{fill:#FFFFFF;}
	.st13{fill:#3A3347;}
	.st14{fill:none;}
	.st15{opacity:0.5;fill:#F9C9C0;}
	.st16{fill:#B26836;}
	.st17{opacity:0.5;fill:#B26836;}
	.st18{fill:#F28BA8;}
	.st19{opacity:0.5;fill:#F28BA8;}
	.st20{fill:#F24C00;}
	.st21{opacity:0.5;fill:#F24C00;}
	.st22{fill:#92140C;}
	.st23{opacity:0.5;fill:#3A3347;}
	.st24{opacity:0.5;fill:#92140C;}
	.st25{fill:none;stroke:#121331;stroke-width:7;stroke-linecap:round;stroke-linejoin:round;stroke-miterlimit:10;}
	.st26{fill:#F9C9C0;}
</style>
<path class="st5" d="M240.4,361.3c-16.4,6.3-34.1,9.7-52.7,9.7c-81.4,0-147.5-66-147.5-147.5S106.3,76,187.7,76
	c18.6,0,36.3,3.4,52.7,9.7c-55.4,21.2-94.8,74.9-94.8,137.8S184.9,340.1,240.4,361.3z"/>
<path class="st6" d="M159,285.1c-2.2,0.4-4.5,0.6-6.9,0.6c-23.3,0-42.2-18.9-42.2-42.2c0-21.6,16.3-39.5,37.2-41.9
	c-1.1,7.2-1.6,14.5-1.6,21.9C145.6,245.5,150.4,266.3,159,285.1z"/>
<path class="st6" d="M116.7,324.4c0,9.3-7.1,17-16.1,17.9c-7.1-5.2-13.8-11.1-19.8-17.5c0-0.1,0-0.2,0-0.4c0-9.9,8-18,18-18
	C108.7,306.4,116.7,314.5,116.7,324.4z"/>
<path class="st6" d="M53.1,163.1C53.1,163.1,53.1,163.1,53.1,163.1c4.2-3.9,9.9-6.2,16-6.2c13.1,0,23.8,10.6,23.8,23.8
	c0,13.1-10.7,23.8-23.8,23.8c-12,0-21.9-8.9-23.5-20.5c0,0,0,0,0,0L53.1,163.1z"/>
<circle class="st6" cx="163.6" cy="339.4" r="4.8"/>
<circle class="st6" cx="125.8" cy="156.9" r="4.8"/>
<circle class="st6" cx="145.1" cy="116.5" r="4.8"/>
<circle class="st6" cx="186.1" cy="358.4" r="8.2"/>
<path class="st6" d="M186.1,78.6c0,4.5-3.7,8.2-8.2,8.2s-8.2-3.7-8.2-8.2c0-0.5,0-1.1,0.2-1.6c5.2-0.6,10.4-1,15.8-1.1
	C185.9,76.8,186.1,77.7,186.1,78.6z"/>
<circle class="st6" cx="77.3" cy="243.4" r="8.2"/>
<polygon class="st4" points="263.1,175.8 295,190.2 263.1,204.7 247.7,236.6 232.2,204.7 200.3,190.2 232.2,175.8 247.7,143.9 "/>
<polygon class="st4" points="311.1,300 333.8,310.3 311.1,320.6 300.1,343.3 289.1,320.6 266.4,310.3 289.1,300 300.1,277.3 "/>
<polygon class="st4" points="350.8,73.2 373.5,83.5 350.8,93.8 339.8,116.5 328.8,93.8 306.1,83.5 328.8,73.2 339.8,50.5 "/>
<polygon class="st9" points="252.7,226.3 247.7,236.6 232.2,204.7 200.3,190.3 211.1,185.4 239,198.1 "/>
<polygon class="st9" points="305.1,333 300.1,343.3 289.1,320.6 266.4,310.3 277.1,305.5 295.8,314 "/>
<polygon class="st9" points="344.8,106.2 339.8,116.5 328.8,93.8 306.1,83.5 316.8,78.6 335.5,87.1 "/>
<path class="st11" d="M187.7,374.4c-83.2,0-151-67.7-151-151c0-83.2,67.7-151,151-151c18.6,0,36.7,3.3,53.9,9.9
	c1.4,0.5,2.3,1.8,2.3,3.3c0,1.5-0.9,2.8-2.2,3.3c-55.4,21.2-92.6,75.2-92.6,134.5c0,59.3,37.2,113.3,92.6,134.5
	c1.4,0.5,2.2,1.8,2.2,3.3c0,1.5-0.9,2.8-2.3,3.3C224.4,371.1,206.3,374.4,187.7,374.4z M187.7,79.5c-79.4,0-144,64.6-144,144
	c0,79.4,64.6,144,144,144c14.7,0,29-2.2,42.9-6.5C206,349.8,185,332.3,169.3,310c-17.8-25.4-27.2-55.4-27.2-86.5
	c0-31.2,9.4-61.1,27.2-86.5c15.6-22.3,36.7-39.8,61.3-51C216.7,81.7,202.4,79.5,187.7,79.5z"/>
<path class="st11" d="M247.7,240.1c-1.3,0-2.6-0.8-3.1-2l-14.9-30.7l-30.7-14c-1.3-0.6-2.1-1.8-2.1-3.2s0.8-2.6,2.1-3.2l30.7-14
	l14.9-30.7c0.6-1.2,1.8-2,3.1-2s2.6,0.8,3.1,2l14.9,30.7l30.7,14c1.3,0.6,2.1,1.8,2.1,3.2s-0.8,2.6-2.1,3.2l-30.7,14l-14.9,30.7
	C250.2,239.3,249,240.1,247.7,240.1z M208.8,190.2l24.9,11.3c0.7,0.3,1.3,0.9,1.7,1.7l12.3,25.4l12.3-25.4c0.4-0.7,1-1.3,1.7-1.7
	l24.9-11.3L261.7,179c-0.7-0.3-1.3-0.9-1.7-1.7l-12.3-25.4l-12.3,25.4c-0.4,0.7-1,1.3-1.7,1.7L208.8,190.2z"/>
<path class="st11" d="M300.1,346.8c-1.3,0-2.6-0.8-3.1-2l-10.4-21.5l-21.5-9.8c-1.3-0.6-2.1-1.8-2.1-3.2s0.8-2.6,2.1-3.2l21.5-9.8
	l10.4-21.5c0.6-1.2,1.8-2,3.1-2s2.6,0.8,3.1,2l10.4,21.5l21.5,9.8c1.3,0.6,2.1,1.8,2.1,3.2s-0.8,2.6-2.1,3.2l-21.5,9.8l-10.4,21.5
	C302.7,346,301.4,346.8,300.1,346.8z M274.9,310.3l15.7,7.1c0.7,0.3,1.3,0.9,1.7,1.7l7.9,16.2l7.9-16.2c0.4-0.7,1-1.3,1.7-1.7
	l15.7-7.1l-15.7-7.1c-0.7-0.3-1.3-0.9-1.7-1.7l-7.9-16.2l-7.9,16.2c-0.4,0.7-1,1.3-1.7,1.7L274.9,310.3z"/>
<path class="st11" d="M339.8,120c-1.3,0-2.6-0.8-3.1-2l-10.4-21.5l-21.5-9.8c-1.3-0.6-2.1-1.8-2.1-3.2s0.8-2.6,2.1-3.2l21.5-9.8
	L336.6,49c0.6-1.2,1.8-2,3.1-2s2.6,0.8,3.1,2l10.4,21.5l21.5,9.8c1.3,0.6,2.1,1.8,2.1,3.2s-0.8,2.6-2.1,3.2l-21.5,9.8L342.9,118
	C342.3,119.2,341.1,120,339.8,120z M314.6,83.5l15.7,7.1c0.7,0.3,1.3,0.9,1.7,1.7l7.9,16.2l7.9-16.2c0.4-0.7,1-1.3,1.7-1.7l15.7-7.1
	l-15.7-7.1c-0.7-0.3-1.3-0.9-1.7-1.7l-7.9-16.2l-7.9,16.2c-0.4,0.7-1,1.3-1.7,1.7L314.6,83.5z"/>
</svg>
